<!--?xml version="1.0" encoding="UTF-8" standalone="no"?-->
<!-- Created with Inkscape (http://www.inkscape.org/) -->

<svg version="1.1" id="svg468" width="744.79297" height="696.31073" viewBox="0 0 744.79297 696.31073" sodipodi:docname="drawing-thicker.svg" inkscape:version="1.2 (dc2aedaf03, 2022-05-15)" xmlns:inkscape="http://www.inkscape.org/namespaces/inkscape" xmlns:sodipodi="http://sodipodi.sourceforge.net/DTD/sodipodi-0.dtd" xmlns="http://www.w3.org/2000/svg" xmlns:svg="http://www.w3.org/2000/svg" class="" style="">
  <defs id="defs472">
    <linearGradient id="linearGradient12858" inkscape:swatch="solid">
      <stop style="stop-color:#ffffff;stop-opacity:1;" offset="0" id="stop12856"></stop>
    </linearGradient>
    <clipPath clipPathUnits="userSpaceOnUse" id="clipPath484">
      <path d="M 0,792 H 612 V 0 H 0 Z" id="path482" class="wyoXjUyk_0"></path>
    </clipPath>
  </defs>
  <sodipodi:namedview id="namedview470" pagecolor="#ffffff" bordercolor="#666666" borderopacity="1.0" inkscape:showpageshadow="2" inkscape:pageopacity="0.0" inkscape:pagecheckerboard="0" inkscape:deskcolor="#d1d1d1" showgrid="false" showguides="false" inkscape:zoom="0.74104847" inkscape:cx="371.77055" inkscape:cy="348.15536" inkscape:window-width="1366" inkscape:window-height="699" inkscape:window-x="0" inkscape:window-y="0" inkscape:window-maximized="1" inkscape:current-layer="g476"></sodipodi:namedview>
  <g id="g476" inkscape:groupmode="layer" inkscape:label="Page 1" transform="matrix(1.3333333,0,0,-1.3333333,-35.603268,876.15173)">
    <path style="display:none;fill:#111518;fill-opacity:1;stroke:#000000;stroke-width:1.15174;stroke-linecap:square" id="rect840" width="591.80963" height="772.47198" transform="scale(1,-1)" sodipodi:insensitive="true" d="M 10.095192,-782.23602 L 601.904822,-782.23602 A 0,0,0,0,1,601.904822,-782.23602 L 601.904822,-9.764040000000023 A 0,0,0,0,1,601.904822,-9.764040000000023 L 10.095192,-9.764040000000023 A 0,0,0,0,1,10.095192,-9.764040000000023 L 10.095192,-782.23602 A 0,0,0,0,1,10.095192,-782.23602" class="wyoXjUyk_1"></path>
    <g id="g478" style="stroke:#ffffff;stroke-opacity:1;stroke-width:2.13448824;stroke-dasharray:none">
      <g id="g480" clip-path="url(#clipPath484)" style="stroke:#ffffff;stroke-width:2.13448824;stroke-dasharray:none;stroke-opacity:1" inkscape:export-filename="../../Downloads/g480.svg" inkscape:export-xdpi="96" inkscape:export-ydpi="96">
        <g id="g486" transform="translate(404.7711,378.0553)" style="stroke:#ffffff;stroke-width:2.13448824;stroke-dasharray:none;stroke-opacity:1">
          <path d="m 0,0 c 2.62,0.237 5.223,0.462 7.684,1.583 2.233,1.016 4.316,2.175 6.067,3.939 4.624,4.658 9.218,9.343 13.742,14.098 3.189,3.351 6.859,6.243 9.783,9.843 3.761,4.63 7.231,9.462 9.675,14.966 1.548,3.487 2.033,7.21 2.622,10.901 0.479,3 0.881,6.031 0.77,9.096 -0.017,0.471 0.114,1.013 0.353,1.418 4.259,7.217 7.586,14.884 11.107,22.469 2.913,6.277 5.128,12.739 6.522,19.484 1.36,6.581 1.527,13.173 0.053,19.811 -1.967,8.858 -5.961,16.826 -10.392,24.615 -5.505,9.679 -11.623,19.014 -16.392,29.103 -2.551,5.395 -4.672,10.981 -7.122,16.426 -3.026,6.725 -6.232,13.368 -9.171,20.135 -1.421,3.274 -2.603,6.662 -4.265,9.821 -2.478,4.71 -5.874,8.469 -11.218,10.017 -0.539,0.156 -1.073,0.208 -1.608,0.159 -4.147,-0.385 -7.774,1.177 -11.435,2.835 -5.311,2.404 -10.367,5.338 -15.857,7.379 -4.853,1.803 -9.829,3.125 -14.819,4.446 -5.946,1.575 -11.715,3.662 -17.322,6.213 -5.276,2.401 -10.743,4.366 -16.42,5.5 -9.029,1.804 -17.881,4.261 -26.765,6.623 -5.659,1.505 -11.504,2.046 -17.307,2.668 -6.581,0.705 -13.148,1.661 -19.805,1.487 -2.903,-0.076 -5.792,-0.188 -8.56,-1.109 -4.264,-1.418 -8.46,-0.974 -12.678,0.184 -3.198,0.878 -6.304,2.029 -9.456,3.041 -5.379,1.729 -10.654,1.871 -15.893,-0.687 -5.693,-2.78 -11.801,-4.632 -17.31,-7.856 -8.243,-4.824 -15.678,-10.521 -21.039,-18.585 -0.429,-0.646 -0.729,-1.331 -0.943,-2.125 -1.112,-4.132 -3.847,-7.204 -6.922,-9.999 -2.587,-2.353 -5.447,-4.403 -7.841,-6.971 -2.912,-3.124 -5.097,-6.494 -5.264,-11.058 -0.124,-3.403 -1.152,-6.705 -2.73,-9.839 -2.187,-4.34 -3.422,-8.988 -3.429,-13.899 -0.01,-6.261 -0.52,-12.529 0.856,-18.747 0.95,-4.293 2.286,-8.459 4.006,-12.465 2.972,-6.924 5.232,-14.092 7.382,-21.277 2.348,-7.847 4.609,-15.719 7.623,-23.334 0.919,-2.321 1.82,-4.777 3.686,-6.628" style="fill: none; stroke: rgb(255, 255, 255); stroke-width: 2.13449px; stroke-linecap: round; stroke-linejoin: round; stroke-miterlimit: 10; stroke-opacity: 1;" id="path488" class="wyoXjUyk_2"></path>
        </g>
        <g id="g490" transform="translate(392.2795,428.5605)" style="stroke:#ffffff;stroke-width:2.13448824;stroke-dasharray:none;stroke-opacity:1">
          <path d="m 0,0 c -0.277,7.851 -2.667,15.286 -4.418,22.853 -0.694,3.001 -1.553,5.862 -3.049,8.572 -1.762,3.189 -2.011,6.811 -2.519,10.337 -0.555,3.849 -0.346,7.729 -0.362,11.599 -0.042,10.465 -4.715,18.222 -13.751,23.364 -4.386,2.496 -8.804,4.969 -12.628,8.264 -3.46,2.982 -5.985,6.862 -8.994,10.278 -5.254,5.966 -9.325,12.736 -13.716,19.298 -4.254,6.357 -9.506,11.852 -15.171,16.947 -3.728,3.353 -8.392,4.244 -13.191,4.262 -6.721,0.026 -13.446,-0.108 -20.164,-0.343 -9.234,-0.322 -18.443,-0.048 -27.663,0.519 -10.251,0.631 -20.464,1.669 -30.688,2.58 -5.302,0.472 -10.621,0.883 -15.887,1.737 -2.444,0.396 -4.092,-0.679 -5.183,-2.846 -2.044,-4.06 -3.971,-8.159 -4.809,-12.675 -0.746,-4.017 -1.252,-8.065 -1.616,-12.135 -0.318,-3.552 -1.044,-7.053 -1.816,-10.521 -1.277,-5.744 -2.844,-11.423 -4.233,-17.143 -1.305,-5.377 -3.297,-10.518 -5.117,-15.727 -1.09,-3.121 -2.665,-6.027 -3.702,-9.116 -0.684,-2.036 -0.058,-4.428 0.619,-6.56 1.735,-5.468 3.211,-11.001 4.446,-16.602 0.777,-3.526 0.378,-7.058 -0.229,-10.521 -0.769,-4.384 -1.292,-8.777 -1.57,-13.214 -0.231,-3.688 -0.127,-7.377 -0.168,-11.065 -0.059,-5.301 0.865,-10.428 2.273,-15.54 1.865,-6.773 3.471,-13.616 4.911,-20.501 1.019,-4.868 1.92,-9.759 2.745,-14.654 0.784,-4.648 1.281,-9.38 1.424,-14.09 0.163,-5.344 1.358,-10.439 2.759,-15.521 1.786,-6.481 4.331,-12.713 6.408,-19.1 1.755,-5.399 3.333,-10.856 4.42,-16.426 0.495,-2.537 0.481,-5.212 1.341,-7.649 1.488,-4.214 3.973,-7.799 7.227,-10.947 2.81,-2.718 6.061,-4.482 9.686,-5.647 4.223,-1.357 8.551,-2.03 13.018,-2.217 7.832,-0.326 15.614,0.151 23.376,0.98 7.517,0.802 14.952,2.104 22.136,4.597 5.355,1.859 10.914,2.974 16.416,4.282 9.994,2.377 20.118,4.159 29.996,7.089 8.469,2.512 16.949,4.948 25.139,8.281 4.072,1.656 7.95,3.756 11.383,6.468 3.005,2.375 4.592,5.85 5.943,9.401 3.486,9.165 6.738,18.414 10.016,27.654 2.888,8.139 5.653,16.32 8.492,24.476 0.223,0.638 0.486,1.139 0.931,1.592" style="fill: none; stroke: rgb(255, 255, 255); stroke-width: 2.13449px; stroke-linecap: round; stroke-linejoin: round; stroke-miterlimit: 10; stroke-opacity: 1;" id="path492" class="wyoXjUyk_3"></path>
        </g>
        <g id="g494" transform="translate(397.0977,383.2308)" style="stroke:#ffffff;stroke-width:2.13448824;stroke-dasharray:none;stroke-opacity:1">
          <path d="M 0,0 C 1.433,-2.528 3.686,-3.951 6.431,-4.612 7.309,-4.824 7.436,-5.285 7.727,-6.048 8.903,-9.137 8.16,-12.095 6.9,-14.785 3.54,-21.964 1.717,-29.614 0.686,-37.319 c -1.112,-8.309 -3.396,-16.344 -4.667,-24.599 -1.401,-9.098 -2.844,-18.185 -4.107,-27.306 -1.191,-8.598 -2.436,-17.199 -4.189,-25.714 -0.279,-1.353 -0.445,-2.739 -0.731,-4.101 -0.167,-0.797 0.061,-1.403 0.848,-1.993 5.44,-4.069 10.522,-8.623 16.276,-12.262 7.12,-4.502 14.222,-9.063 21.948,-12.489 6.011,-2.665 12.295,-4.728 18.744,-5.815 9.078,-1.53 17.982,-3.759 26.914,-5.873 4.989,-1.181 9.912,-2.709 14.837,-4.183 9.826,-2.941 19.514,-6.267 28.88,-10.428 7.284,-3.236 14.565,-6.464 21.966,-9.424 4.301,-1.721 8.811,-2.844 13.044,-4.781 4.722,-2.161 8.693,-5.282 12.501,-8.748 7.378,-6.716 12.024,-15.187 16.049,-24.113 3.29,-7.3 5.468,-14.956 7.478,-22.672 0.503,-1.933 1.139,-3.848 1.076,-5.888" style="fill: none; stroke: rgb(78, 204, 162); stroke-width: 2.13449px; stroke-linecap: round; stroke-linejoin: round; stroke-miterlimit: 10; stroke-opacity: 1;" id="path496" class="wyoXjUyk_4"></path>
        </g>
        <g id="g498" transform="translate(219.4485,296.6759)" style="stroke:#ffffff;stroke-width:2.13448824;stroke-dasharray:none;stroke-opacity:1">
          <path d="m 0,0 c -2.481,-1.947 -4.588,-4.334 -7.391,-5.916 -3.725,-2.103 -7.759,-3.385 -11.803,-4.579 -10.132,-2.992 -20.251,-6.025 -30.487,-8.67 -4.886,-1.262 -9.765,-2.609 -14.668,-3.786 -6.192,-1.487 -12.513,-2.371 -18.897,-2.771 -9.617,-0.603 -19.215,-1.508 -28.726,-3.053 -6.445,-1.047 -12.872,-2.246 -19.296,-3.436 -8.862,-1.641 -17.308,-4.594 -25.851,-7.257 -7.768,-2.421 -15.493,-5.009 -22.843,-8.553 -3.922,-1.89 -7.602,-4.219 -11.245,-6.596 -0.35,-0.228 -0.829,-0.358 -0.897,-0.885" style="fill: none; stroke: rgb(255, 255, 255); stroke-width: 2.13449px; stroke-linecap: round; stroke-linejoin: round; stroke-miterlimit: 10; stroke-opacity: 1;" id="path500" class="wyoXjUyk_5"></path>
        </g>
        <g id="g502" transform="translate(222.2145,293.9989)" style="stroke:#ffffff;stroke-width:2.13448824;stroke-dasharray:none;stroke-opacity:1">
          <path d="m 0,0 c -1.971,-3.916 -3.359,-8.03 -4.289,-12.313 -2.097,-9.659 -3.847,-19.386 -5.672,-29.097 -1.32,-7.017 -1.52,-14.118 -0.746,-21.231 1.491,-13.701 3.221,-27.369 6.083,-40.864 1.111,-5.239 2.332,-10.457 4.089,-15.53" style="fill: none; stroke: rgb(78, 204, 162); stroke-width: 2.13449px; stroke-linecap: round; stroke-linejoin: round; stroke-miterlimit: 10; stroke-opacity: 1;" id="path504" class="wyoXjUyk_6"></path>
        </g>
        <g id="g506" transform="translate(455.2731,444.2653)" style="stroke:#ffffff;stroke-width:2.13448824;stroke-dasharray:none;stroke-opacity:1">
          <path d="m 0,0 c -0.888,2.606 -0.787,5.415 -1.614,8.028 -1.341,4.238 -2.257,8.656 -5.338,12.145 -3.02,3.42 -7.058,4.135 -11.079,1.97 -2.243,-1.208 -4.274,-2.673 -6.056,-4.479 -4.105,-4.159 -7.872,-8.635 -11.191,-13.419 -3.306,-4.765 -4.943,-10.342 -6.673,-15.84 -3.371,-10.714 -6.218,-21.591 -10.617,-31.982 -1.914,-4.522 -3.332,-9.278 -5.13,-13.866 -0.435,-1.11 0.344,-2.461 -0.834,-3.324" style="fill: none; stroke: rgb(78, 204, 162); stroke-width: 2.13449px; stroke-linecap: round; stroke-linejoin: round; stroke-miterlimit: 10; stroke-opacity: 1;" id="path508" class="wyoXjUyk_7"></path>
        </g>
        <g id="g510" transform="translate(384.0707,262.4109)" style="stroke:#ffffff;stroke-width:2.13448824;stroke-dasharray:none;stroke-opacity:1">
          <path d="m 0,0 c -1.058,-3.13 -1.288,-6.43 -1.979,-9.633 -1.687,-7.816 -3.166,-15.679 -4.384,-23.571 -2.124,-13.759 -3.997,-27.56 -5.598,-41.393 -0.021,-0.183 -0.114,-0.358 -0.174,-0.536" style="fill: none; stroke: rgb(255, 255, 255); stroke-width: 2.13449px; stroke-linecap: round; stroke-linejoin: round; stroke-miterlimit: 10; stroke-opacity: 1;" id="path512" class="wyoXjUyk_8"></path>
        </g>
        <g id="g514" transform="translate(240.0598,360.0305)" style="stroke:#ffffff;stroke-width:2.13448824;stroke-dasharray:none;stroke-opacity:1">
          <path d="m 0,0 c -1.281,-1.356 -3.106,-1.937 -4.478,-3.194 -2.186,-2.003 -3.734,-4.336 -3.883,-7.337 -0.17,-3.4 2.751,-9.074 8.003,-10.175 10.017,-2.099 19.367,-0.476 28.014,5.008 5.198,3.296 10.371,6.63 15.514,10.011 0.902,0.593 1.98,1.055 2.514,2.118" style="fill: none; stroke: rgb(78, 204, 162); stroke-width: 2.13449px; stroke-linecap: round; stroke-linejoin: round; stroke-miterlimit: 10; stroke-opacity: 1;" id="path516" class="wyoXjUyk_9"></path>
        </g>
        <g id="g518" transform="translate(332.498,491.5582)" style="stroke:#ffffff;stroke-width:2.13448824;stroke-dasharray:none;stroke-opacity:1">
          <path d="m 0,0 c -0.138,1.043 -0.973,1.292 -1.782,1.612 -6.256,2.473 -12.632,4.207 -19.453,4.336 -6.007,0.113 -12.016,0.415 -18.024,0.27 -6.176,-0.149 -12.291,-0.855 -18.211,-2.802 -0.964,-0.317 -1.904,-0.674 -2.651,-1.295 -2.798,-2.322 -5.135,-5.1 -7.486,-7.854 -0.129,-0.151 -0.102,-0.581 -0.229,-0.863 1.603,-1.037 3.136,-0.055 4.46,0.422 5.334,1.92 10.857,2.626 16.441,3.157 3.4,0.324 6.78,0.844 10.175,1.225 3.982,0.447 7.972,0.822 11.955,1.262 4.037,0.445 8.065,0.935 12.134,1.094 3.726,0.144 7.365,0.052 11.087,-0.622 3.465,-0.627 5.398,-2.817 7.473,-5.117" style="fill: none; stroke: rgb(255, 255, 255); stroke-width: 2.13449px; stroke-linecap: round; stroke-linejoin: round; stroke-miterlimit: 10; stroke-opacity: 1;" id="path520" class="wyoXjUyk_10"></path>
        </g>
        <g id="g522" transform="translate(338.7438,470.1425)" style="stroke:#ffffff;stroke-width:2.13448824;stroke-dasharray:none;stroke-opacity:1">
          <path d="m 0,0 c -3.923,0.57 -7.722,1.722 -11.603,2.482 -8.062,1.58 -16.067,3.421 -24.084,5.206 -3.613,0.804 -7.224,1.576 -10.882,2.17 -3.439,0.557 -5.995,-0.884 -7.996,-3.289 -2.833,-3.404 -5.014,-7.046 -4.117,-11.95 0.249,-1.358 0.46,-2.724 0.813,-4.091 0.294,-1.133 0.924,-1.208 1.834,-1.248 2.989,-0.132 6.059,-0.004 8.902,-0.946 2.545,-0.844 5.095,-1.634 7.698,-2.24 3.048,-0.709 6.152,-1.001 9.275,-0.713 2.446,0.225 5.004,0.023 7.301,0.922 4.561,1.785 8.901,4.091 13.19,6.44 2.063,1.13 4.187,2.099 6.274,3.162 0.448,0.228 0.815,0.079 1.258,0.032 0.991,-0.107 1.966,-0.095 2.88,0.635 0.77,0.615 0.784,0.964 0.365,1.84 -1.912,3.991 -2.398,8.371 -3.268,12.649 -0.485,2.378 -0.405,4.867 -1.394,7.149 -0.056,0.128 0.104,0.35 0.163,0.529" style="fill: none; stroke: rgb(78, 204, 162); stroke-width: 2.13449px; stroke-linecap: round; stroke-linejoin: round; stroke-miterlimit: 10; stroke-opacity: 1;" id="path524" class="wyoXjUyk_11"></path>
        </g>
        <g id="g526" transform="translate(335.1748,466.0379)" style="stroke:#ffffff;stroke-width:2.13448824;stroke-dasharray:none;stroke-opacity:1">
          <path d="m 0,0 c -0.176,0.897 -0.995,0.904 -1.61,1.053 -8.089,1.959 -16.296,3.342 -24.449,4.991 -4.187,0.846 -8.372,1.681 -12.66,2.043 -5.225,0.442 -9.409,-1.107 -12.694,-5.216 -1.107,-1.385 -1.917,-3.021 -3.372,-4.12" style="fill: none; stroke: rgb(255, 255, 255); stroke-width: 2.13449px; stroke-linecap: round; stroke-linejoin: round; stroke-miterlimit: 10; stroke-opacity: 1;" id="path528" class="wyoXjUyk_12"></path>
        </g>
        <g id="g530" transform="translate(338.9223,466.0379)" style="stroke:#ffffff;stroke-width:2.13448824;stroke-dasharray:none;stroke-opacity:1">
          <path d="m 0,0 c 0.429,-0.629 1.154,-0.694 1.788,-0.882 4.818,-1.431 9.805,-2.304 14.285,-4.807 5.479,-3.06 10.533,-6.702 15.131,-10.936 3.747,-3.451 8.08,-5.879 12.712,-7.783 3.042,-1.251 4.793,-3.523 6.265,-6.268 0.678,-1.264 1.015,-2.83 2.462,-3.589" style="fill: none; stroke: rgb(255, 255, 255); stroke-width: 2.13449px; stroke-linecap: round; stroke-linejoin: round; stroke-miterlimit: 10; stroke-opacity: 1;" id="path532" class="wyoXjUyk_13"></path>
        </g>
        <g id="g534" transform="translate(194.5544,474.2472)" style="stroke:#ffffff;stroke-width:2.13448824;stroke-dasharray:none;stroke-opacity:1">
          <path d="m 0,0 c -0.13,-1.892 0.945,-3.458 1.47,-5.163 0.721,-2.341 1.608,-4.644 3.163,-6.621 3.032,-3.856 7.276,-4.731 11.783,-4.587 3.688,0.118 7.406,0.036 11.064,0.674 4.047,0.705 8.203,0.765 12.148,2.1 0.457,0.155 1.084,0.202 1.613,-0.303 0.926,-0.883 1.415,-2.119 2.46,-2.902 0.146,-0.109 0.164,-0.491 0.064,-0.877 -1.844,-7.093 -3.461,-14.246 -6.278,-21.053 -1.349,-3.258 -3.378,-6.111 -5.193,-9.093 -1.721,-2.824 -3.762,-5.512 -4.596,-8.758 -0.853,-3.318 -0.629,-6.481 2.089,-9.107 4.845,-4.68 10.76,-7.257 17.15,-8.89 4.319,-1.104 8.655,-2.173 13.031,-3.01 3.478,-0.665 7.024,-1.163 10.524,0.129 2.448,0.904 3.118,2.362 1.953,4.644 -2.633,5.156 -6.912,8.489 -12.137,10.691 -1.822,0.768 -2.883,0.038 -3.203,-1.942 -0.372,-2.297 -1.377,-3.277 -3.746,-3.756 -1.404,-0.284 -2.843,-0.481 -4.511,-1.371 4.153,-2.912 8.49,-4.11 13.253,-3.975" style="fill: none; stroke: rgb(78, 204, 162); stroke-width: 2.13449px; stroke-linecap: round; stroke-linejoin: round; stroke-miterlimit: 10; stroke-opacity: 1;" id="path536" class="wyoXjUyk_14"></path>
        </g>
        <g id="g538" transform="translate(239.1675,398.2217)" style="stroke:#4ecca2;stroke-width:2.13448824;stroke-dasharray:none;stroke-opacity:1">
          <path d="m 0,0 c 1.105,-1.601 2.873,-2.327 4.479,-3.179 3.6,-1.909 5.816,-4.678 6.439,-8.773 0.329,-2.169 -0.208,-4.107 -0.918,-6.075 -0.574,-1.591 -0.372,-3.011 0.87,-4.296 1.317,-1.362 2.524,-2.832 3.76,-4.271 1.12,-1.302 1.939,-2.747 2.34,-4.455 0.705,-3.002 -1.036,-5.29 -4.121,-5.366 -2.69,-0.066 -5.376,-0.177 -8.036,-0.679 -0.691,-0.131 -1.172,-0.43 -1.601,-0.919" style="fill: none; stroke: rgb(78, 204, 162); stroke-width: 2.13449px; stroke-linecap: round; stroke-linejoin: round; stroke-miterlimit: 10; stroke-opacity: 1;" id="path540" class="wyoXjUyk_15"></path>
        </g>
        <g id="g542" transform="translate(238.0968,457.8286)" style="stroke:#ffffff;stroke-width:2.13448824;stroke-dasharray:none;stroke-opacity:1">
          <path d="m 0,0 c 1.376,0.965 1.224,2.565 1.589,3.931 0.501,1.881 1.192,3.718 1.284,5.705 0.076,1.645 -0.34,3.136 -1.466,4.264 -2.855,2.858 -4.975,6.299 -7.6,9.346 -2.774,3.218 -6.546,4.37 -10.245,5.603 -4.123,1.374 -8.525,1.17 -12.826,1.515 -3.391,0.272 -6.784,0.06 -10.176,0.3 -5.066,0.359 -10.052,-0.151 -14.809,-2.11" style="fill: none; stroke: rgb(255, 255, 255); stroke-width: 2.13449px; stroke-linecap: round; stroke-linejoin: round; stroke-miterlimit: 10; stroke-opacity: 1;" id="path544" class="wyoXjUyk_16"></path>
        </g>
        <g id="g546" transform="translate(299.1274,358.4243)" style="stroke:#ffffff;stroke-width:2.13448824;stroke-dasharray:none;stroke-opacity:1">
          <path d="m 0,0 c -3.046,-0.767 -6.173,-0.837 -9.28,-1.062 -0.922,-0.067 -1.798,-0.21 -2.692,-0.495 -0.633,-0.201 -1.324,-0.293 -2.158,0.052 -1.596,0.662 -3.421,0.139 -5.146,0.414 -4.085,0.651 -8.082,1.707 -12.13,2.529 -4.151,0.843 -8.31,0.876 -12.493,0.348 -3.32,-0.419 -6.643,-0.771 -9.992,-0.931 -1.822,-0.087 -3.39,0.817 -5.154,1.027 -1.776,0.211 -3.553,0.218 -5.185,-0.009 -4.988,-0.693 -9.98,-1.224 -15.003,-1.51 -0.789,-0.044 -1.597,-0.1 -2.32,0.351" style="fill: none; stroke: rgb(255, 255, 255); stroke-width: 2.13449px; stroke-linecap: round; stroke-linejoin: round; stroke-miterlimit: 10; stroke-opacity: 1;" id="path548" class="wyoXjUyk_17"></path>
        </g>
        <g id="g550" transform="translate(228.4604,484.2412)" style="stroke:#4ecca2;stroke-width:2.13448824;stroke-dasharray:none;stroke-opacity:1">
          <path d="m 0,0 c -0.23,1.949 -1.763,3.135 -2.906,4.417 -4.379,4.913 -10.028,7.358 -16.541,8.108 -4.99,0.575 -10.006,0.446 -14.992,0.886 -2.722,0.24 -4.914,-0.946 -7.14,-2.168" style="fill: none; stroke: rgb(78, 204, 162); stroke-width: 2.13449px; stroke-linecap: round; stroke-linejoin: round; stroke-miterlimit: 10; stroke-opacity: 1;" id="path552" class="wyoXjUyk_18"></path>
        </g>
        <g id="g554" transform="translate(231.3156,469.2502)" style="stroke:#ffffff;stroke-width:2.13448824;stroke-dasharray:none;stroke-opacity:1">
          <path d="m 0,0 c 0.109,0.874 -0.404,1.29 -1.049,1.812 -4.307,3.484 -9.333,5.251 -14.652,6.409 -3.108,0.677 -6.21,0.372 -9.276,-0.054 -3.156,-0.439 -6.362,-0.567 -9.467,-1.376 -0.717,-0.187 -1.437,-0.316 -1.96,-0.902" style="fill: none; stroke: rgb(255, 255, 255); stroke-width: 2.13449px; stroke-linecap: round; stroke-linejoin: round; stroke-miterlimit: 10; stroke-opacity: 1;" id="path556" class="wyoXjUyk_19"></path>
        </g>
        <g id="g558" transform="translate(235.9554,464.9671)" style="stroke:#ffffff;stroke-width:2.13448824;stroke-dasharray:none;stroke-opacity:1">
          <path d="m 0,0 c -2.002,2.773 -4.809,4.249 -8.025,5.192 -7.819,2.294 -15.673,4.288 -23.918,4.101 -2.794,-0.063 -5.591,-0.83 -8.388,-0.016 -0.29,0.084 -0.609,0.083 -0.888,0.191 -0.404,0.156 -0.138,0.457 -0.093,0.704" style="fill: none; stroke: rgb(255, 255, 255); stroke-width: 2.13449px; stroke-linecap: round; stroke-linejoin: round; stroke-miterlimit: 10; stroke-opacity: 1;" id="path560" class="wyoXjUyk_20"></path>
        </g>
        <g id="g562" transform="translate(247.9117,374.6645)" style="stroke:#ffffff;stroke-width:2.13448824;stroke-dasharray:none;stroke-opacity:1">
          <path d="m 0,0 c -2.247,-1.87 -4.852,-2.645 -7.666,-1.933 -6.739,1.706 -11.579,-1.756 -16.233,-5.757 -1.45,-1.247 -2.55,-2.815 -3.609,-4.428 -2.378,-3.625 -4.737,-5.164 -10.504,-3.772 -0.463,0.112 -0.95,0.126 -1.426,0.185" style="fill: none; stroke: rgb(255, 255, 255); stroke-width: 2.13449px; stroke-linecap: round; stroke-linejoin: round; stroke-miterlimit: 10; stroke-opacity: 1;" id="path564" class="wyoXjUyk_21"></path>
        </g>
        <g id="g566" transform="translate(403.8789,378.7692)" style="stroke:#ffffff;stroke-width:2.13448824;stroke-dasharray:none;stroke-opacity:1">
          <path d="M 0,0 C -0.148,1.97 -1.083,3.693 -2.014,5.325 -3.188,7.382 -4.153,7.424 -6.246,6.068" style="fill: none; stroke: rgb(255, 255, 255); stroke-width: 2.13449px; stroke-linecap: round; stroke-linejoin: round; stroke-miterlimit: 10; stroke-opacity: 1;" id="path568" class="wyoXjUyk_22"></path>
        </g>
        <g id="g570" transform="translate(279.6761,463.004)" style="stroke:#ffffff;stroke-width:2.13448824;stroke-dasharray:none;stroke-opacity:1">
          <path d="m 0,0 c -1.091,-0.404 -1.25,-1.596 -1.976,-2.357 0.771,-1.528 2.077,-1.065 3.314,-0.855" style="fill: none; stroke: rgb(255, 255, 255); stroke-width: 2.13449px; stroke-linecap: round; stroke-linejoin: round; stroke-miterlimit: 10; stroke-opacity: 1;" id="path572" class="wyoXjUyk_23"></path>
        </g>
      </g>
    </g>
  </g>
<style data-made-with="vivus-instant">.wyoXjUyk_0{stroke-dasharray:2808 2810;stroke-dashoffset:2809;}.start .wyoXjUyk_0{animation:wyoXjUyk_draw 2666ms ease-in-out 0ms forwards;}.wyoXjUyk_1{stroke-dasharray:2729 2731;stroke-dashoffset:2730;}.start .wyoXjUyk_1{animation:wyoXjUyk_draw 2666ms ease-in-out 57ms forwards;}.wyoXjUyk_2{stroke-dasharray:673 675;stroke-dashoffset:674;}.start .wyoXjUyk_2{animation:wyoXjUyk_draw 2666ms ease-in-out 115ms forwards;}.wyoXjUyk_3{stroke-dasharray:780 782;stroke-dashoffset:781;}.start .wyoXjUyk_3{animation:wyoXjUyk_draw 2666ms ease-in-out 173ms forwards;}.wyoXjUyk_4{stroke-dasharray:380 382;stroke-dashoffset:381;}.start .wyoXjUyk_4{animation:wyoXjUyk_draw 2666ms ease-in-out 231ms forwards;}.wyoXjUyk_5{stroke-dasharray:203 205;stroke-dashoffset:204;}.start .wyoXjUyk_5{animation:wyoXjUyk_draw 2666ms ease-in-out 289ms forwards;}.wyoXjUyk_6{stroke-dasharray:122 124;stroke-dashoffset:123;}.start .wyoXjUyk_6{animation:wyoXjUyk_draw 2666ms ease-in-out 347ms forwards;}.wyoXjUyk_7{stroke-dasharray:129 131;stroke-dashoffset:130;}.start .wyoXjUyk_7{animation:wyoXjUyk_draw 2666ms ease-in-out 405ms forwards;}.wyoXjUyk_8{stroke-dasharray:77 79;stroke-dashoffset:78;}.start .wyoXjUyk_8{animation:wyoXjUyk_draw 2666ms ease-in-out 463ms forwards;}.wyoXjUyk_9{stroke-dasharray:79 81;stroke-dashoffset:80;}.start .wyoXjUyk_9{animation:wyoXjUyk_draw 2666ms ease-in-out 521ms forwards;}.wyoXjUyk_10{stroke-dasharray:151 153;stroke-dashoffset:152;}.start .wyoXjUyk_10{animation:wyoXjUyk_draw 2666ms ease-in-out 579ms forwards;}.wyoXjUyk_11{stroke-dasharray:160 162;stroke-dashoffset:161;}.start .wyoXjUyk_11{animation:wyoXjUyk_draw 2666ms ease-in-out 637ms forwards;}.wyoXjUyk_12{stroke-dasharray:60 62;stroke-dashoffset:61;}.start .wyoXjUyk_12{animation:wyoXjUyk_draw 2666ms ease-in-out 695ms forwards;}.wyoXjUyk_13{stroke-dasharray:65 67;stroke-dashoffset:66;}.start .wyoXjUyk_13{animation:wyoXjUyk_draw 2666ms ease-in-out 753ms forwards;}.wyoXjUyk_14{stroke-dasharray:204 206;stroke-dashoffset:205;}.start .wyoXjUyk_14{animation:wyoXjUyk_draw 2666ms ease-in-out 811ms forwards;}.wyoXjUyk_15{stroke-dasharray:57 59;stroke-dashoffset:58;}.start .wyoXjUyk_15{animation:wyoXjUyk_draw 2666ms ease-in-out 869ms forwards;}.wyoXjUyk_16{stroke-dasharray:78 80;stroke-dashoffset:79;}.start .wyoXjUyk_16{animation:wyoXjUyk_draw 2666ms ease-in-out 927ms forwards;}.wyoXjUyk_17{stroke-dasharray:83 85;stroke-dashoffset:84;}.start .wyoXjUyk_17{animation:wyoXjUyk_draw 2666ms ease-in-out 985ms forwards;}.wyoXjUyk_18{stroke-dasharray:47 49;stroke-dashoffset:48;}.start .wyoXjUyk_18{animation:wyoXjUyk_draw 2666ms ease-in-out 1043ms forwards;}.wyoXjUyk_19{stroke-dasharray:40 42;stroke-dashoffset:41;}.start .wyoXjUyk_19{animation:wyoXjUyk_draw 2666ms ease-in-out 1101ms forwards;}.wyoXjUyk_20{stroke-dasharray:45 47;stroke-dashoffset:46;}.start .wyoXjUyk_20{animation:wyoXjUyk_draw 2666ms ease-in-out 1159ms forwards;}.wyoXjUyk_21{stroke-dasharray:46 48;stroke-dashoffset:47;}.start .wyoXjUyk_21{animation:wyoXjUyk_draw 2666ms ease-in-out 1217ms forwards;}.wyoXjUyk_22{stroke-dasharray:11 13;stroke-dashoffset:12;}.start .wyoXjUyk_22{animation:wyoXjUyk_draw 2666ms ease-in-out 1275ms forwards;}.wyoXjUyk_23{stroke-dasharray:7 9;stroke-dashoffset:8;}.start .wyoXjUyk_23{animation:wyoXjUyk_draw 2666ms ease-in-out 1333ms forwards;}@keyframes wyoXjUyk_draw{100%{stroke-dashoffset:0;}}@keyframes wyoXjUyk_fade{0%{stroke-opacity:1;}95.1219512195122%{stroke-opacity:1;}100%{stroke-opacity:0;}}</style></svg>
