<svg viewBox="0 0 744.79 696.31" xmlns="http://www.w3.org/2000/svg" style="" class="">
  <defs>
    <clipPath id="a">
      <path d="M0 792h612V0H0z" class="gNmcVuVT_0"></path>
    </clipPath>
  </defs>
  <g clip-path="url(#a)" transform="matrix(1.3333 0 0 -1.3333 -35.603 876.15)" stroke="#fff" stroke-width="2.135">
    <path d="M404.77 378.06c2.62.237 5.223.462 7.684 1.583 2.233 1.016 4.316 2.175 6.067 3.939 4.624 4.658 9.218 9.343 13.742 14.098 3.189 3.351 6.859 6.243 9.783 9.843 3.761 4.63 7.231 9.462 9.675 14.966 1.548 3.487 2.033 7.21 2.622 10.901.479 3 .881 6.031.77 9.096a2.742 2.742 0 0 0 .353 1.418c4.259 7.217 7.586 14.884 11.107 22.469 2.913 6.277 5.128 12.739 6.522 19.484 1.36 6.581 1.527 13.173.053 19.811-1.967 8.858-5.961 16.826-10.392 24.615-5.505 9.679-11.623 19.014-16.392 29.103-2.551 5.395-4.672 10.981-7.122 16.426-3.026 6.725-6.232 13.368-9.171 20.135-1.421 3.274-2.603 6.662-4.265 9.821-2.478 4.71-5.874 8.469-11.218 10.017a4.312 4.312 0 0 1-1.608.159c-4.147-.385-7.774 1.177-11.435 2.835-5.311 2.404-10.367 5.338-15.857 7.379-4.853 1.803-9.829 3.125-14.819 4.446-5.946 1.575-11.715 3.662-17.322 6.213-5.276 2.401-10.743 4.366-16.42 5.5-9.029 1.804-17.881 4.261-26.765 6.623-5.659 1.505-11.504 2.046-17.307 2.668-6.581.705-13.148 1.661-19.805 1.487-2.903-.076-5.792-.188-8.56-1.109-4.264-1.418-8.46-.974-12.678.184-3.198.878-6.304 2.029-9.456 3.041-5.379 1.729-10.654 1.871-15.893-.687-5.693-2.78-11.801-4.632-17.31-7.856-8.243-4.824-15.678-10.521-21.039-18.585a7.069 7.069 0 0 1-.943-2.125c-1.112-4.132-3.847-7.204-6.922-9.999-2.587-2.353-5.447-4.403-7.841-6.971-2.912-3.124-5.097-6.494-5.264-11.058-.124-3.403-1.152-6.705-2.73-9.839-2.187-4.34-3.422-8.988-3.429-13.899-.01-6.261-.52-12.529.856-18.747a69.763 69.763 0 0 1 4.006-12.465c2.972-6.924 5.232-14.092 7.382-21.277 2.348-7.847 4.609-15.719 7.623-23.334.919-2.321 1.82-4.777 3.686-6.628" fill="none" stroke-linecap="round" stroke-linejoin="round" stroke-miterlimit="10" class="gNmcVuVT_1"></path>
    <path d="M392.28 428.56c-.277 7.851-2.667 15.286-4.418 22.853-.694 3.001-1.553 5.862-3.049 8.572-1.762 3.189-2.011 6.811-2.519 10.337-.555 3.849-.346 7.729-.362 11.599-.042 10.465-4.715 18.222-13.751 23.364-4.386 2.496-8.804 4.969-12.628 8.264-3.46 2.982-5.985 6.862-8.994 10.278-5.254 5.966-9.325 12.736-13.716 19.298-4.254 6.357-9.506 11.852-15.171 16.947-3.728 3.353-8.392 4.244-13.191 4.262-6.721.026-13.446-.108-20.164-.343-9.234-.322-18.443-.048-27.663.519-10.251.631-20.464 1.669-30.688 2.58-5.302.472-10.621.883-15.887 1.737-2.444.396-4.092-.679-5.183-2.846-2.044-4.06-3.971-8.159-4.809-12.675-.746-4.017-1.252-8.065-1.616-12.135-.318-3.552-1.044-7.053-1.816-10.521-1.277-5.744-2.844-11.423-4.233-17.143-1.305-5.377-3.297-10.518-5.117-15.727-1.09-3.121-2.665-6.027-3.702-9.116-.684-2.036-.058-4.428.619-6.56a190.408 190.408 0 0 0 4.446-16.602c.777-3.526.378-7.058-.229-10.521a119.619 119.619 0 0 1-1.57-13.214c-.231-3.688-.127-7.377-.168-11.065-.059-5.301.865-10.428 2.273-15.54 1.865-6.773 3.471-13.616 4.911-20.501a378.722 378.722 0 0 0 2.745-14.654c.784-4.648 1.281-9.38 1.424-14.09.163-5.344 1.358-10.439 2.759-15.521 1.786-6.481 4.331-12.713 6.408-19.1 1.755-5.399 3.333-10.856 4.42-16.426.495-2.537.481-5.212 1.341-7.649 1.488-4.214 3.973-7.799 7.227-10.947 2.81-2.718 6.061-4.482 9.686-5.647 4.223-1.357 8.551-2.03 13.018-2.217 7.832-.326 15.614.151 23.376.98 7.517.802 14.952 2.104 22.136 4.597 5.355 1.859 10.914 2.974 16.416 4.282 9.994 2.377 20.118 4.159 29.996 7.089 8.469 2.512 16.949 4.948 25.139 8.281 4.072 1.656 7.95 3.756 11.383 6.468 3.005 2.375 4.592 5.85 5.943 9.401 3.486 9.165 6.738 18.414 10.016 27.654 2.888 8.139 5.653 16.32 8.492 24.476.223.638.486 1.139.931 1.592" fill="none" stroke-linecap="round" stroke-linejoin="round" stroke-miterlimit="10" class="gNmcVuVT_2"></path>
    <path d="M397.1 383.23c1.433-2.528 3.686-3.951 6.431-4.612.878-.212 1.005-.673 1.296-1.436 1.176-3.089.433-6.047-.827-8.737-3.36-7.179-5.183-14.829-6.214-22.534-1.112-8.309-3.396-16.344-4.667-24.599-1.401-9.098-2.844-18.185-4.107-27.306-1.191-8.598-2.436-17.199-4.189-25.714-.279-1.353-.445-2.739-.731-4.101-.167-.797.061-1.403.848-1.993 5.44-4.069 10.522-8.623 16.276-12.262 7.12-4.502 14.222-9.063 21.948-12.489 6.011-2.665 12.295-4.728 18.744-5.815 9.078-1.53 17.982-3.759 26.914-5.873 4.989-1.181 9.912-2.709 14.837-4.183 9.826-2.941 19.514-6.267 28.88-10.428 7.284-3.236 14.565-6.464 21.966-9.424 4.301-1.721 8.811-2.844 13.044-4.781 4.722-2.161 8.693-5.282 12.501-8.748 7.378-6.716 12.024-15.187 16.049-24.113 3.29-7.3 5.468-14.956 7.478-22.672.503-1.933 1.139-3.848 1.076-5.888" fill="none" stroke="#4ecca2" stroke-linecap="round" stroke-linejoin="round" stroke-miterlimit="10" class="gNmcVuVT_3"></path>
    <path d="M219.45 296.68c-2.481-1.947-4.588-4.334-7.391-5.916-3.725-2.103-7.759-3.385-11.803-4.579-10.132-2.992-20.251-6.025-30.487-8.67-4.886-1.262-9.765-2.609-14.668-3.786-6.192-1.487-12.513-2.371-18.897-2.771-9.617-.603-19.215-1.508-28.726-3.053-6.445-1.047-12.872-2.246-19.296-3.436-8.862-1.641-17.308-4.594-25.851-7.257-7.768-2.421-15.493-5.009-22.843-8.553-3.922-1.89-7.602-4.219-11.245-6.596-.35-.228-.829-.358-.897-.885" fill="none" stroke-linecap="round" stroke-linejoin="round" stroke-miterlimit="10" class="gNmcVuVT_4"></path>
    <path d="M222.21 294c-1.971-3.916-3.359-8.03-4.289-12.313-2.097-9.659-3.847-19.386-5.672-29.097-1.32-7.017-1.52-14.118-.746-21.231 1.491-13.701 3.221-27.369 6.083-40.864 1.111-5.239 2.332-10.457 4.089-15.53M455.27 444.27c-.888 2.606-.787 5.415-1.614 8.028-1.341 4.238-2.257 8.656-5.338 12.145-3.02 3.42-7.058 4.135-11.079 1.97-2.243-1.208-4.274-2.673-6.056-4.479-4.105-4.159-7.872-8.635-11.191-13.419-3.306-4.765-4.943-10.342-6.673-15.84-3.371-10.714-6.218-21.591-10.617-31.982-1.914-4.522-3.332-9.278-5.13-13.866-.435-1.11.344-2.461-.834-3.324" fill="none" stroke="#4ecca2" stroke-linecap="round" stroke-linejoin="round" stroke-miterlimit="10" class="gNmcVuVT_5"></path>
    <path d="M384.07 262.41c-1.058-3.13-1.288-6.43-1.979-9.633a403.474 403.474 0 0 1-4.384-23.571 1101.147 1101.147 0 0 1-5.598-41.393c-.021-.183-.114-.358-.174-.536" fill="none" stroke-linecap="round" stroke-linejoin="round" stroke-miterlimit="10" class="gNmcVuVT_6"></path>
    <path d="M240.06 360.03c-1.281-1.356-3.106-1.937-4.478-3.194-2.186-2.003-3.734-4.336-3.883-7.337-.17-3.4 2.751-9.074 8.003-10.175 10.017-2.099 19.367-.476 28.014 5.008 5.198 3.296 10.371 6.63 15.514 10.011.902.593 1.98 1.055 2.514 2.118" fill="none" stroke="#4ecca2" stroke-linecap="round" stroke-linejoin="round" stroke-miterlimit="10" class="gNmcVuVT_7"></path>
    <path d="M332.5 491.56c-.138 1.043-.973 1.292-1.782 1.612-6.256 2.473-12.632 4.207-19.453 4.336-6.007.113-12.016.415-18.024.27-6.176-.149-12.291-.855-18.211-2.802-.964-.317-1.904-.674-2.651-1.295-2.798-2.322-5.135-5.1-7.486-7.854-.129-.151-.102-.581-.229-.863 1.603-1.037 3.136-.055 4.46.422 5.334 1.92 10.857 2.626 16.441 3.157 3.4.324 6.78.844 10.175 1.225 3.982.447 7.972.822 11.955 1.262 4.037.445 8.065.935 12.134 1.094 3.726.144 7.365.052 11.087-.622 3.465-.627 5.398-2.817 7.473-5.117" fill="none" stroke-linecap="round" stroke-linejoin="round" stroke-miterlimit="10" class="gNmcVuVT_8"></path>
    <path d="M338.74 470.14c-3.923.57-7.722 1.722-11.603 2.482-8.062 1.58-16.067 3.421-24.084 5.206-3.613.804-7.224 1.576-10.882 2.17-3.439.557-5.995-.884-7.996-3.289-2.833-3.404-5.014-7.046-4.117-11.95.249-1.358.46-2.724.813-4.091.294-1.133.924-1.208 1.834-1.248 2.989-.132 6.059-.004 8.902-.946 2.545-.844 5.095-1.634 7.698-2.24 3.048-.709 6.152-1.001 9.275-.713 2.446.225 5.004.023 7.301.922 4.561 1.785 8.901 4.091 13.19 6.44 2.063 1.13 4.187 2.099 6.274 3.162.448.228.815.079 1.258.032.991-.107 1.966-.095 2.88.635.77.615.784.964.365 1.84-1.912 3.991-2.398 8.371-3.268 12.649-.485 2.378-.405 4.867-1.394 7.149-.056.128.104.35.163.529" fill="none" stroke="#4ecca2" stroke-linecap="round" stroke-linejoin="round" stroke-miterlimit="10" class="gNmcVuVT_9"></path>
    <path d="M335.17 466.04c-.176.897-.995.904-1.61 1.053-8.089 1.959-16.296 3.342-24.449 4.991-4.187.846-8.372 1.681-12.66 2.043-5.225.442-9.409-1.107-12.694-5.216-1.107-1.385-1.917-3.021-3.372-4.12M338.92 466.04c.429-.629 1.154-.694 1.788-.882 4.818-1.431 9.805-2.304 14.285-4.807a79.441 79.441 0 0 0 15.131-10.936c3.747-3.451 8.08-5.879 12.712-7.783 3.042-1.251 4.793-3.523 6.265-6.268.678-1.264 1.015-2.83 2.462-3.589" fill="none" stroke-linecap="round" stroke-linejoin="round" stroke-miterlimit="10" class="gNmcVuVT_10"></path>
    <path d="M194.55 474.25c-.13-1.892.945-3.458 1.47-5.163.721-2.341 1.608-4.644 3.163-6.621 3.032-3.856 7.276-4.731 11.783-4.587 3.688.118 7.406.036 11.064.674 4.047.705 8.203.765 12.148 2.1.457.155 1.084.202 1.613-.303.926-.883 1.415-2.119 2.46-2.902.146-.109.164-.491.064-.877-1.844-7.093-3.461-14.246-6.278-21.053-1.349-3.258-3.378-6.111-5.193-9.093-1.721-2.824-3.762-5.512-4.596-8.758-.853-3.318-.629-6.481 2.089-9.107 4.845-4.68 10.76-7.257 17.15-8.89 4.319-1.104 8.655-2.173 13.031-3.01 3.478-.665 7.024-1.163 10.524.129 2.448.904 3.118 2.362 1.953 4.644-2.633 5.156-6.912 8.489-12.137 10.691-1.822.768-2.883.038-3.203-1.942-.372-2.297-1.377-3.277-3.746-3.756-1.404-.284-2.843-.481-4.511-1.371 4.153-2.912 8.49-4.11 13.253-3.975M239.17 398.22c1.105-1.601 2.873-2.327 4.479-3.179 3.6-1.909 5.816-4.678 6.439-8.773.329-2.169-.208-4.107-.918-6.075-.574-1.591-.372-3.011.87-4.296 1.317-1.362 2.524-2.832 3.76-4.271 1.12-1.302 1.939-2.747 2.34-4.455.705-3.002-1.036-5.29-4.121-5.366-2.69-.066-5.376-.177-8.036-.679-.691-.131-1.172-.43-1.601-.919" fill="none" stroke="#4ecca2" stroke-linecap="round" stroke-linejoin="round" stroke-miterlimit="10" class="gNmcVuVT_11"></path>
    <path d="M238.1 457.83c1.376.965 1.224 2.565 1.589 3.931.501 1.881 1.192 3.718 1.284 5.705.076 1.645-.34 3.136-1.466 4.264-2.855 2.858-4.975 6.299-7.6 9.346-2.774 3.218-6.546 4.37-10.245 5.603-4.123 1.374-8.525 1.17-12.826 1.515-3.391.272-6.784.06-10.176.3-5.066.359-10.052-.151-14.809-2.11M299.13 358.42c-3.046-.767-6.173-.837-9.28-1.062-.922-.067-1.798-.21-2.692-.495-.633-.201-1.324-.293-2.158.052-1.596.662-3.421.139-5.146.414-4.085.651-8.082 1.707-12.13 2.529-4.151.843-8.31.876-12.493.348-3.32-.419-6.643-.771-9.992-.931-1.822-.087-3.39.817-5.154 1.027-1.776.211-3.553.218-5.185-.009-4.988-.693-9.98-1.224-15.003-1.51-.789-.044-1.597-.1-2.32.351" fill="none" stroke-linecap="round" stroke-linejoin="round" stroke-miterlimit="10" class="gNmcVuVT_12"></path>
    <path d="M228.46 484.24c-.23 1.949-1.763 3.135-2.906 4.417-4.379 4.913-10.028 7.358-16.541 8.108-4.99.575-10.006.446-14.992.886-2.722.24-4.914-.946-7.14-2.168" fill="none" stroke-linecap="round" stroke-linejoin="round" stroke-miterlimit="10" stroke="#4ecca2" class="gNmcVuVT_13"></path>
    <path d="M231.32 469.25c.109.874-.404 1.29-1.049 1.812-4.307 3.484-9.333 5.251-14.652 6.409-3.108.677-6.21.372-9.276-.054-3.156-.439-6.362-.567-9.467-1.376-.717-.187-1.437-.316-1.96-.902" fill="none" stroke-linecap="round" stroke-linejoin="round" stroke-miterlimit="10" class="gNmcVuVT_14"></path>
    <path d="M235.96 464.97c-2.002 2.773-4.809 4.249-8.025 5.192-7.819 2.294-15.673 4.288-23.918 4.101-2.794-.063-5.591-.83-8.388-.016-.29.084-.609.083-.888.191-.404.156-.138.457-.093.704M247.91 374.66c-2.247-1.87-4.852-2.645-7.666-1.933-6.739 1.706-11.579-1.756-16.233-5.757-1.45-1.247-2.55-2.815-3.609-4.428-2.378-3.625-4.737-5.164-10.504-3.772-.463.112-.95.126-1.426.185M403.88 378.77c-.148 1.97-1.083 3.693-2.014 5.325-1.174 2.057-2.139 2.099-4.232.743M279.68 463c-1.091-.404-1.25-1.596-1.976-2.357.771-1.528 2.077-1.065 3.314-.855" fill="none" stroke-linecap="round" stroke-linejoin="round" stroke-miterlimit="10" class="gNmcVuVT_15"></path>
  </g>
<style data-made-with="vivus-instant">.gNmcVuVT_0{stroke-dasharray:2808 2810;stroke-dashoffset:2809;}.start .gNmcVuVT_0{animation:gNmcVuVT_draw 3000ms ease-in-out 0ms forwards;}.gNmcVuVT_1{stroke-dasharray:673 675;stroke-dashoffset:674;}.start .gNmcVuVT_1{animation:gNmcVuVT_draw 3000ms ease-in-out 100ms forwards;}.gNmcVuVT_2{stroke-dasharray:780 782;stroke-dashoffset:781;}.start .gNmcVuVT_2{animation:gNmcVuVT_draw 3000ms ease-in-out 200ms forwards;}.gNmcVuVT_3{stroke-dasharray:380 382;stroke-dashoffset:381;}.start .gNmcVuVT_3{animation:gNmcVuVT_draw 3000ms ease-in-out 300ms forwards;}.gNmcVuVT_4{stroke-dasharray:203 205;stroke-dashoffset:204;}.start .gNmcVuVT_4{animation:gNmcVuVT_draw 3000ms ease-in-out 400ms forwards;}.gNmcVuVT_5{stroke-dasharray:250 252;stroke-dashoffset:251;}.start .gNmcVuVT_5{animation:gNmcVuVT_draw 3000ms ease-in-out 500ms forwards;}.gNmcVuVT_6{stroke-dasharray:77 79;stroke-dashoffset:78;}.start .gNmcVuVT_6{animation:gNmcVuVT_draw 3000ms ease-in-out 600ms forwards;}.gNmcVuVT_7{stroke-dasharray:79 81;stroke-dashoffset:80;}.start .gNmcVuVT_7{animation:gNmcVuVT_draw 3000ms ease-in-out 700ms forwards;}.gNmcVuVT_8{stroke-dasharray:151 153;stroke-dashoffset:152;}.start .gNmcVuVT_8{animation:gNmcVuVT_draw 3000ms ease-in-out 800ms forwards;}.gNmcVuVT_9{stroke-dasharray:160 162;stroke-dashoffset:161;}.start .gNmcVuVT_9{animation:gNmcVuVT_draw 3000ms ease-in-out 900ms forwards;}.gNmcVuVT_10{stroke-dasharray:124 126;stroke-dashoffset:125;}.start .gNmcVuVT_10{animation:gNmcVuVT_draw 3000ms ease-in-out 1000ms forwards;}.gNmcVuVT_11{stroke-dasharray:260 262;stroke-dashoffset:261;}.start .gNmcVuVT_11{animation:gNmcVuVT_draw 3000ms ease-in-out 1100ms forwards;}.gNmcVuVT_12{stroke-dasharray:160 162;stroke-dashoffset:161;}.start .gNmcVuVT_12{animation:gNmcVuVT_draw 3000ms ease-in-out 1200ms forwards;}.gNmcVuVT_13{stroke-dasharray:47 49;stroke-dashoffset:48;}.start .gNmcVuVT_13{animation:gNmcVuVT_draw 3000ms ease-in-out 1300ms forwards;}.gNmcVuVT_14{stroke-dasharray:40 42;stroke-dashoffset:41;}.start .gNmcVuVT_14{animation:gNmcVuVT_draw 3000ms ease-in-out 1400ms forwards;}.gNmcVuVT_15{stroke-dasharray:108 110;stroke-dashoffset:109;}.start .gNmcVuVT_15{animation:gNmcVuVT_draw 3000ms ease-in-out 1500ms forwards;}@keyframes gNmcVuVT_draw{100%{stroke-dashoffset:0;}}@keyframes gNmcVuVT_fade{0%{stroke-opacity:1;}95.40229885057471%{stroke-opacity:1;}100%{stroke-opacity:0;}}</style></svg>
