<svg width="60.235mm" height="16.754mm" version="1.1" viewBox="0 0 60.235 16.754" xmlns="http://www.w3.org/2000/svg">
<g transform="translate(-75.597 -17.325)" fill="#fff" stroke-width=".26458">
<g aria-label="CONAMA">
<path d="m84.256 20.915h-2.5436q-0.02706-0.3157-0.14432-0.57276-0.11275-0.25707-0.3157-0.44197-0.19844-0.18942-0.48256-0.28864-0.28413-0.10373-0.64492-0.10373-0.63139 0-1.0689 0.30668-0.43295 0.30668-0.65845 0.87944-0.22099 0.57276-0.22099 1.3755 0 0.84787 0.2255 1.4206 0.23001 0.56825 0.66296 0.85689 0.43296 0.28413 1.0418 0.28413 0.34727 0 0.62237-0.08569 0.27511-0.0902 0.47805-0.25707 0.20295-0.16687 0.32923-0.40138 0.13079-0.23903 0.17589-0.53668l2.5436 0.01804q-0.0451 0.58629-0.32923 1.1951-0.28413 0.60433-0.80728 1.1185-0.51864 0.50962-1.2853 0.82081t-1.7814 0.31119q-1.2718 0-2.282-0.5457-1.0057-0.5457-1.592-1.6055-0.58178-1.0598-0.58178-2.5932 0-1.5424 0.59531-2.5977 0.59531-1.0598 1.6055-1.601 1.0102-0.5457 2.255-0.5457 0.87493 0 1.61 0.23903 0.73512 0.23903 1.2898 0.69904 0.55472 0.4555 0.89297 1.123 0.33824 0.66747 0.4104 1.5289z"/>
<path d="m94.34 22.07q0 1.5424-0.59982 2.6022-0.59982 1.0553-1.6191 1.601-1.0192 0.54119-2.273 0.54119-1.2628 0-2.282-0.5457-1.0147-0.55021-1.6146-1.6055-0.59531-1.0598-0.59531-2.5932 0-1.5424 0.59531-2.5977 0.59982-1.0598 1.6146-1.601 1.0192-0.5457 2.282-0.5457 1.2538 0 2.273 0.5457 1.0192 0.54119 1.6191 1.601 0.59982 1.0553 0.59982 2.5977zm-2.5797 0q0-0.82983-0.22099-1.3981-0.21648-0.57276-0.64492-0.86591-0.42393-0.29766-1.0463-0.29766-0.62237 0-1.0508 0.29766-0.42394 0.29315-0.64492 0.86591-0.21648 0.56825-0.21648 1.3981 0 0.82983 0.21648 1.4026 0.22099 0.56825 0.64492 0.86591 0.42844 0.29315 1.0508 0.29315 0.62237 0 1.0463-0.29315 0.42844-0.29766 0.64492-0.86591 0.22099-0.57276 0.22099-1.4026z"/>
<path d="m103.49 17.451v9.2364h-2.0926l-3.3374-4.8527h-0.05412v4.8527h-2.5075v-9.2364h2.1287l3.2832 4.8347h0.0722v-4.8347z"/>
<path d="m107.08 26.688h-2.706l3.0487-9.2364h3.4276l3.0487 9.2364h-2.706l-2.0205-6.6928h-0.0721zm-0.50511-3.644h5.0872v1.8761h-5.0872z"/>
<path d="m114.78 17.451h3.1209l2.1467 5.2315h0.10824l2.1467-5.2315h3.1209v9.2364h-2.4534v-5.3398h-0.0722l-2.0565 5.2676h-1.4793l-2.0565-5.3037h-0.0722v5.3759h-2.4534z"/>
<path d="m129.01 26.688h-2.706l3.0487-9.2364h3.4276l3.0487 9.2364h-2.706l-2.0204-6.6928h-0.0722zm-0.50511-3.644h5.0872v1.8761h-5.0872z"/>
</g>
<g aria-label="archivo musical">
<path d="m80.774 34.079q-0.36581 0-0.65895-0.13029-0.29064-0.13279-0.46102-0.39086-0.16787-0.25807-0.16787-0.6364 0-0.32572 0.12026-0.53869 0.12026-0.21297 0.32822-0.34075 0.20796-0.12778 0.46853-0.19293 0.26308-0.06765 0.5437-0.09772 0.33825-0.03508 0.54871-0.06264 0.21046-0.03007 0.30567-0.0902 0.09772-0.06264 0.09772-0.19293v-0.01503q0-0.28312-0.16787-0.43847-0.16787-0.15534-0.48357-0.15534-0.33324 0-0.52867 0.14532-0.19292 0.14532-0.26057 0.34326l-0.84687-0.12026q0.10022-0.35077 0.33073-0.58629 0.23051-0.23802 0.56374-0.35578 0.33323-0.12026 0.73662-0.12026 0.27811 0 0.55372 0.06514t0.50361 0.21548q0.228 0.14783 0.36581 0.40339 0.14031 0.25556 0.14031 0.63891v2.5757h-0.87192v-0.52867h-0.03007q-0.08268 0.16035-0.23301 0.30066-0.14783 0.1378-0.37332 0.22299-0.22299 0.08268-0.52366 0.08268zm0.23552-0.66647q0.2731 0 0.47354-0.10774 0.20044-0.11024 0.30818-0.29064 0.11024-0.1804 0.11024-0.39337v-0.4535q-0.04259 0.03508-0.14532 0.06514-0.10022 0.03007-0.2255 0.05262-0.12528 0.02255-0.24805 0.04009-0.12277 0.01754-0.21297 0.03007-0.20295 0.02756-0.3633 0.0902-0.16035 0.06264-0.25306 0.17539-0.0927 0.11024-0.0927 0.28563 0 0.25055 0.1829 0.37834 0.1829 0.12778 0.46603 0.12778z"/>
<path d="m83.721 34.001v-3.8485h0.87944v0.64141h0.04009q0.10523-0.33324 0.3608-0.51363 0.25807-0.1829 0.5888-0.1829 0.07517 0 0.16787 0.0075 0.09521 5e-3 0.15785 0.01754v0.83434q-0.05763-0.02004-0.1829-0.03508-0.12277-0.01754-0.23802-0.01754-0.24805 0-0.44598 0.10774-0.19543 0.10523-0.30818 0.29315-0.11275 0.18792-0.11275 0.43346v2.2625z"/>
<path d="m88.038 34.076q-0.57627 0-0.98968-0.25306-0.41091-0.25306-0.6339-0.69904-0.22049-0.44849-0.22049-1.0323 0-0.58629 0.2255-1.0348 0.2255-0.45099 0.6364-0.70155 0.41341-0.25306 0.97716-0.25306 0.46853 0 0.82933 0.17288 0.3633 0.17038 0.57878 0.48357 0.21548 0.31068 0.24554 0.7266h-0.86691q-0.05262-0.27811-0.25055-0.46352-0.19543-0.18791-0.52366-0.18791-0.27811 0-0.48858 0.15033-0.21046 0.14783-0.32822 0.42594-0.11525 0.27811-0.11525 0.66647 0 0.39337 0.11525 0.67649 0.11525 0.28062 0.32321 0.43346 0.21046 0.15033 0.49359 0.15033 0.20044 0 0.35829-0.07517 0.16035-0.07767 0.26809-0.22299 0.10774-0.14532 0.14783-0.35328h0.86691q-0.03257 0.4084-0.24053 0.7241-0.20796 0.31319-0.56625 0.49108-0.35829 0.17539-0.84186 0.17539z"/>
<path d="m91.34 31.746v2.255h-0.907v-5.1313h0.88696v1.9368h0.0451q0.1353-0.32572 0.41842-0.51363 0.28563-0.19042 0.7266-0.19042 0.40088 0 0.69904 0.16787t0.46102 0.49108q0.16536 0.32321 0.16536 0.78924v2.4504h-0.907v-2.3101q0-0.38836-0.20044-0.60383-0.19794-0.21798-0.55623-0.21798-0.24053 0-0.43095 0.10523-0.18791 0.10273-0.29565 0.29816-0.10523 0.19543-0.10523 0.47354z"/>
<path d="m94.757 34.001v-3.8485h0.907v3.8485zm0.456-4.3947q-0.21548 0-0.37082-0.14282-0.15534-0.14532-0.15534-0.34827 0-0.20545 0.15534-0.34827 0.15534-0.14532 0.37082-0.14532 0.21798 0 0.37082 0.14532 0.15534 0.14282 0.15534 0.34827 0 0.20295-0.15534 0.34827-0.15284 0.14282-0.37082 0.14282z"/>
<path d="m100.03 30.153-1.3705 3.8485h-1.0022l-1.3705-3.8485h0.96713l0.88445 2.8588h0.04009l0.88696-2.8588z"/>
<path d="m102.21 34.076q-0.56375 0-0.97716-0.24805t-0.64141-0.69403q-0.2255-0.44598-0.2255-1.0423t0.2255-1.0448q0.228-0.44849 0.64141-0.69654t0.97716-0.24805q0.56374 0 0.97715 0.24805t0.63891 0.69654q0.228 0.44849 0.228 1.0448t-0.228 1.0423q-0.2255 0.44598-0.63891 0.69403t-0.97715 0.24805zm5e-3 -0.7266q0.30567 0 0.51112-0.16787 0.20546-0.17038 0.30568-0.45601 0.10272-0.28563 0.10272-0.6364 0-0.35328-0.10272-0.63891-0.10022-0.28814-0.30568-0.45851-0.20545-0.17038-0.51112-0.17038-0.31319 0-0.52115 0.17038-0.20546 0.17038-0.30818 0.45851-0.10022 0.28563-0.10022 0.63891 0 0.35077 0.10022 0.6364 0.10272 0.28563 0.30818 0.45601 0.20796 0.16787 0.52115 0.16787z"/>
<path d="m106.57 34.001v-3.8485h0.86691v0.65394h0.0451q0.12027-0.33073 0.39838-0.51614 0.27812-0.18791 0.66397-0.18791 0.39086 0 0.65895 0.19042 0.2706 0.18791 0.38084 0.51363h0.0401q0.12778-0.32071 0.43095-0.51113 0.30567-0.19293 0.7241-0.19293 0.53117 0 0.86691 0.33574 0.33574 0.33574 0.33574 0.97966v2.5832h-0.90951v-2.4429q0-0.35829-0.19042-0.52365-0.19042-0.16787-0.46603-0.16787-0.32822 0-0.51363 0.20545-0.1829 0.20295-0.1829 0.52867v2.4003h-0.88946v-2.4805q0-0.29816-0.1804-0.47605-0.17789-0.17789-0.46603-0.17789-0.19543 0-0.35578 0.10022-0.16036 0.09772-0.25557 0.27811-0.0952 0.17789-0.0952 0.41592v2.3402z"/>
<path d="m115.36 32.383v-2.2299h0.907v3.8485h-0.87943v-0.68401h-0.0401q-0.13029 0.32321-0.42845 0.52867-0.29565 0.20545-0.72911 0.20545-0.37833 0-0.66897-0.16787-0.28814-0.17038-0.451-0.49359-0.16285-0.32572-0.16285-0.78674v-2.4504h0.907v2.3101q0 0.36581 0.20044 0.58128t0.52616 0.21548q0.20044 0 0.38835-0.09772 0.18792-0.09772 0.30818-0.29064 0.12277-0.19543 0.12277-0.48858z"/>
<path d="m120.24 31.17-0.82682 0.0902q-0.0351-0.12528-0.12277-0.23552-0.0852-0.11024-0.23051-0.17789-0.14532-0.06765-0.35579-0.06765-0.28312 0-0.47605 0.12277-0.19042 0.12277-0.18791 0.3182-3e-3 0.16787 0.12277 0.2731 0.12778 0.10523 0.42093 0.17288l0.65645 0.14031q0.5462 0.11776 0.81179 0.37332 0.26809 0.25556 0.27059 0.66898-2e-3 0.3633-0.21297 0.64142-0.20795 0.27561-0.57877 0.43095t-0.85188 0.15534q-0.70656 0-1.1375-0.29565-0.43095-0.29816-0.51363-0.82933l0.88445-0.08519q0.0601 0.26057 0.25556 0.39337 0.19543 0.13279 0.50862 0.13279 0.32322 0 0.51865-0.13279 0.19793-0.13279 0.19793-0.32822 0-0.16536-0.12778-0.2731-0.12527-0.10774-0.39086-0.16536l-0.65645-0.1378q-0.55372-0.11526-0.81931-0.38836-0.26558-0.27561-0.26308-0.69654-2e-3 -0.35578 0.19293-0.61636 0.19794-0.26308 0.54871-0.4059 0.35328-0.14532 0.8143-0.14532 0.67649 0 1.0648 0.28814 0.39087 0.28814 0.48357 0.77922z"/>
<path d="m121.07 34.001v-3.8485h0.907v3.8485zm0.456-4.3947q-0.21547 0-0.37082-0.14282-0.15534-0.14532-0.15534-0.34827 0-0.20545 0.15534-0.34827 0.15535-0.14532 0.37082-0.14532 0.21798 0 0.37082 0.14532 0.15534 0.14282 0.15534 0.34827 0 0.20295-0.15534 0.34827-0.15284 0.14282-0.37082 0.14282z"/>
<path d="m124.59 34.076q-0.57627 0-0.98968-0.25306-0.41091-0.25306-0.6339-0.69904-0.22049-0.44849-0.22049-1.0323 0-0.58629 0.2255-1.0348 0.2255-0.45099 0.6364-0.70155 0.41341-0.25306 0.97716-0.25306 0.46853 0 0.82933 0.17288 0.3633 0.17038 0.57877 0.48357 0.21548 0.31068 0.24554 0.7266h-0.86691q-0.0526-0.27811-0.25055-0.46352-0.19543-0.18791-0.52366-0.18791-0.27811 0-0.48857 0.15033-0.21047 0.14783-0.32823 0.42594-0.11525 0.27811-0.11525 0.66647 0 0.39337 0.11525 0.67649 0.11526 0.28062 0.32322 0.43346 0.21046 0.15033 0.49358 0.15033 0.20045 0 0.35829-0.07517 0.16036-0.07767 0.2681-0.22299 0.10773-0.14532 0.14782-0.35328h0.86691q-0.0326 0.4084-0.24053 0.7241-0.20796 0.31319-0.56625 0.49108-0.35829 0.17539-0.84185 0.17539z"/>
<path d="m128.09 34.079q-0.36581 0-0.65896-0.13029-0.29064-0.13279-0.46101-0.39086-0.16787-0.25807-0.16787-0.6364 0-0.32572 0.12026-0.53869 0.12027-0.21297 0.32823-0.34075t0.46853-0.19293q0.26308-0.06765 0.5437-0.09772 0.33825-0.03508 0.54871-0.06264 0.21046-0.03007 0.30567-0.0902 0.0977-0.06264 0.0977-0.19293v-0.01503q0-0.28312-0.16787-0.43847-0.16787-0.15534-0.48357-0.15534-0.33323 0-0.52866 0.14532-0.19293 0.14532-0.26058 0.34326l-0.84687-0.12026q0.10023-0.35077 0.33073-0.58629 0.23051-0.23802 0.56375-0.35578 0.33323-0.12026 0.73662-0.12026 0.27811 0 0.55372 0.06514t0.50361 0.21548q0.22801 0.14783 0.36581 0.40339 0.14031 0.25556 0.14031 0.63891v2.5757h-0.87192v-0.52867h-0.0301q-0.0827 0.16035-0.23301 0.30066-0.14783 0.1378-0.37333 0.22299-0.22299 0.08268-0.52365 0.08268zm0.23552-0.66647q0.2731 0 0.47354-0.10774 0.20044-0.11024 0.30818-0.29064 0.11024-0.1804 0.11024-0.39337v-0.4535q-0.0426 0.03508-0.14532 0.06514-0.10022 0.03007-0.22549 0.05262-0.12528 0.02255-0.24805 0.04009t-0.21297 0.03007q-0.20295 0.02756-0.3633 0.0902t-0.25306 0.17539q-0.0927 0.11024-0.0927 0.28563 0 0.25055 0.1829 0.37834 0.1829 0.12778 0.46603 0.12778z"/>
<path d="m131.94 28.87v5.1313h-0.907v-5.1313z"/>
</g>
</g>
</svg>
