<svg xmlns="http://www.w3.org/2000/svg" fill="#fff" viewBox="0 0 74 16.64"><defs></defs><g id="Layer_2" data-name="Layer 2"><g id="Layer_1-2" data-name="Layer 1"><path class="cls-1" d="M29.39,9.82H24l-.11.71h5.87l-.56,3.13H19.49L21.33,3.23H31l-.56,3.14H24.56l-.11.7h5.44Z"/><path class="cls-1" d="M30.86,10.53h5.19c-.25-.32-.52-.65-.81-1a12.1,12.1,0,0,1-.83-1.06,9.35,9.35,0,0,1-.66-1.14,3.36,3.36,0,0,1-.33-1.22V6a2.09,2.09,0,0,1,0-.38,2.67,2.67,0,0,1,.36-1,3.15,3.15,0,0,1,.63-.76,3,3,0,0,1,.82-.51,2.42,2.42,0,0,1,.91-.18H43l-.56,3.14H37.93c.28.39.57.77.86,1.13s.56.73.81,1.1a6.83,6.83,0,0,1,.6,1.13,3.29,3.29,0,0,1,.23,1.21,4,4,0,0,1,0,.59,2.39,2.39,0,0,1-.3.85,2.56,2.56,0,0,1-.55.67,2.08,2.08,0,0,1-.72.45,2.3,2.3,0,0,1-.86.16H30.3Z"/><path class="cls-1" d="M42.33,13.66,44.17,3.23H48L46.13,13.66Z"/><path class="cls-1" d="M60.54,13.66H56.73l.72-4.08-3.21,4.08H53.6L51.79,9.58l-.72,4.08H47.28L49.12,3.23H53l1.92,4.16,3.33-4.16h4.16Z"/><path class="cls-1" d="M70,12.06H66.12l-.83,1.6h-3.9l5.1-10.43h6.08L74,13.66H70.25ZM67.45,9.28h2.19L69.13,6Z"/><path class="cls-1" d="M13,11.24a5.52,5.52,0,0,0-1.87-2.42h0a9.68,9.68,0,0,1,4.16-3,4.36,4.36,0,0,0,3-3.45A2,2,0,0,0,17.13.25L16.59,0l-.26.53a7.52,7.52,0,0,1-3.07,3,8.23,8.23,0,0,0-2.78,2l-.07,0c-.52-.23-1.89-1-1.94-2A1.59,1.59,0,0,0,7.4,2.08a3.62,3.62,0,0,0-3.68.74l-1,.86L4,3.86a2.24,2.24,0,0,1,1.64,1.2A3.44,3.44,0,0,0,6.82,6.77,8.71,8.71,0,0,1,3.23,9.39,5.15,5.15,0,0,0,.35,12.31a3.11,3.11,0,0,0,0,2.79l.51.9.53-.89A9.32,9.32,0,0,1,4.62,12a8.45,8.45,0,0,0,2.75-2,4.93,4.93,0,0,1,2.36,3.33,3.94,3.94,0,0,0,2.69,3,5.12,5.12,0,0,0,1.89.37,4.42,4.42,0,0,0,3-1.13l.75-.68-1-.34S14.11,13.45,13,11.24ZM9.52,8.79A1.9,1.9,0,0,1,7.92,9a.58.58,0,0,1-.24-.14.61.61,0,0,1-.21-.24l0-.1v0h0a1,1,0,0,1,0-.67h0a1.81,1.81,0,0,1,.43-.6h0A.76.76,0,0,1,8,7.07a2.11,2.11,0,0,1,.45-.31A1.93,1.93,0,0,1,10,6.57a.61.61,0,0,1,.23.11.71.71,0,0,1,.28.29.06.06,0,0,1,0,0h0a.88.88,0,0,1,0,.73h0a1.92,1.92,0,0,1-.48.65A2.15,2.15,0,0,1,9.52,8.79Z"/></g></g></svg>
